<svg width="25" height="25" viewBox="0 0 25 25" fill="none" xmlns="http://www.w3.org/2000/svg">
<g opacity="0.98" clip-path="url(#clip0_1_2)">
<path d="M19.1458 5.85417H19.1579M6.45833 0.416667H18.5417C21.8784 0.416667 24.5833 3.12161 24.5833 6.45833V18.5417C24.5833 21.8784 21.8784 24.5833 18.5417 24.5833H6.45833C3.12161 24.5833 0.416667 21.8784 0.416667 18.5417V6.45833C0.416667 3.12161 3.12161 0.416667 6.45833 0.416667ZM17.3333 11.7387C17.4825 12.7444 17.3107 13.7715 16.8425 14.6738C16.3742 15.5762 15.6334 16.308 14.7253 16.765C13.8172 17.2221 12.7882 17.3812 11.7844 17.2197C10.7807 17.0581 9.85346 16.5843 9.13455 15.8655C8.41574 15.1465 7.94188 14.2193 7.78035 13.2156C7.61882 12.2118 7.77793 11.1828 8.23497 10.2747C8.69201 9.36665 9.42378 8.62579 10.3262 8.15754C11.2285 7.68929 12.2556 7.51755 13.2613 7.66667C14.2871 7.81882 15.2367 8.29674 15.9699 9.03005C16.7033 9.76327 17.1812 10.7129 17.3333 11.7387Z" stroke="#351B00" stroke-linecap="round" stroke-linejoin="round"/>
</g>
<defs>
<clipPath id="clip0_1_2">
<rect width="25" height="25" fill="white"/>
</clipPath>
</defs>
</svg>
