<svg width="25" height="25" viewBox="0 0 25 25" fill="none" xmlns="http://www.w3.org/2000/svg">
<g opacity="0.98" clip-path="url(#clip0_1_2)">
<path d="M1.04175 1.04169H5.20842L8.00008 14.9896C8.09534 15.4692 8.35624 15.9 8.73711 16.2066C9.11798 16.5132 9.59456 16.6761 10.0834 16.6667H20.2084C20.6973 16.6761 21.1739 16.5132 21.5547 16.2066C21.9356 15.9 22.1965 15.4692 22.2917 14.9896L23.9584 6.25002H6.25008M10.4167 21.875C10.4167 22.4503 9.95038 22.9167 9.37508 22.9167C8.79979 22.9167 8.33342 22.4503 8.33342 21.875C8.33342 21.2997 8.79979 20.8334 9.37508 20.8334C9.95038 20.8334 10.4167 21.2997 10.4167 21.875ZM21.8751 21.875C21.8751 22.4503 21.4087 22.9167 20.8334 22.9167C20.2581 22.9167 19.7917 22.4503 19.7917 21.875C19.7917 21.2997 20.2581 20.8334 20.8334 20.8334C21.4087 20.8334 21.8751 21.2997 21.8751 21.875Z" stroke="#351B00" stroke-linecap="round" stroke-linejoin="round"/>
</g>
<defs>
<clipPath id="clip0_1_2">
<rect width="25" height="25" fill="white"/>
</clipPath>
</defs>
</svg>
